<svg width="40" height="40" viewBox="0 0 40 40" fill="none" xmlns="http://www.w3.org/2000/svg" xmlns:xlink="http://www.w3.org/1999/xlink">
<path d="M14,19C14,16.238 16.238,14 19,14C21.762,14 24,16.238 24,19C24,21.762 21.762,24 19,24C16.238,24 14,21.762 14,19Z" fill="#FFFFFF"/>
<path d="M25.875,3.376L12.125,3.376C7.291,3.376 3.375,7.292 3.375,12.126L3.375,25.876C3.375,30.708 7.291,34.626 12.125,34.626L25.875,34.626C30.707,34.626 34.625,30.708 34.625,25.876L34.625,12.126C34.625,7.292 30.707,3.376 25.875,3.376ZM18.999,26.5C14.857,26.5 11.499,23.142 11.499,19C11.499,14.858 14.857,11.5 18.999,11.5C23.141,11.5 26.499,14.858 26.499,19C26.499,23.142 23.141,26.5 18.999,26.5ZM27.125,12.75C26.089,12.75 25.249,11.91 25.249,10.876C25.249,9.84 26.089,9 27.125,9C28.159,9 28.999,9.84 28.999,10.876C28.999,11.91 28.159,12.75 27.125,12.75Z" fill="#FFFFFF"/>
</svg>
