<svg width="70" height="80" viewBox="0 0 70 80" fill="none" xmlns="http://www.w3.org/2000/svg" xmlns:xlink="http://www.w3.org/1999/xlink">
<path d="M34.76,80C33.443,80 32.507,79.351 31.954,78.054L0.778,5.019C0.085,3.449 0.05,2.219 0.674,1.332C1.366,0.444 2.301,0 3.478,0C4.795,0 5.8,0.717 6.493,2.151L34.864,69.142L62.923,2.561C63.614,0.854 64.758,0 66.352,0C67.598,0 68.43,0.512 68.846,1.536C69.262,2.561 69.192,3.722 68.638,5.019L37.565,78.054C37.219,78.805 36.768,79.317 36.214,79.59C35.73,79.863 35.245,80 34.76,80Z" fill="#000000"/>
</svg>
