<svg width="70" height="80" viewBox="0 0 70 80" fill="none" xmlns="http://www.w3.org/2000/svg" xmlns:xlink="http://www.w3.org/1999/xlink">
<path d="M34.76,79C33.443,79 32.507,78.351 31.954,77.054L0.778,4.019C0.085,2.449 0.05,1.219 0.674,0.332C1.366,-0.556 2.301,-1 3.478,-1C4.795,-1 5.8,-0.283 6.493,1.151L34.864,68.142L62.923,1.561C63.614,-0.146 64.758,-1 66.352,-1C67.598,-1 68.43,-0.488 68.846,0.536C69.262,1.561 69.192,2.722 68.638,4.019L37.565,77.054C37.219,77.805 36.768,78.317 36.214,78.59C35.73,78.863 35.245,79 34.76,79Z" fill="#FFFFFF"/>
</svg>
