<svg width="32" height="34" viewBox="0 0 32 34" fill="none" xmlns="http://www.w3.org/2000/svg" xmlns:xlink="http://www.w3.org/1999/xlink">
<path d="M15,0.506C6.16,0.506 -1,7.848 -1,16.912C-1,24.17 3.58,30.302 9.94,32.476C10.74,32.618 11.04,32.126 11.04,31.696C11.04,31.306 11.02,30.014 11.02,28.64C7,29.4 5.96,27.636 5.64,26.714C5.46,26.242 4.68,24.786 4,24.396C3.44,24.088 2.64,23.33 3.98,23.31C5.24,23.288 6.14,24.498 6.44,24.99C7.88,27.472 10.18,26.774 11.1,26.344C11.24,25.278 11.66,24.56 12.12,24.15C8.56,23.74 4.84,22.324 4.84,16.05C4.84,14.266 5.46,12.79 6.48,11.642C6.32,11.232 5.76,9.55 6.64,7.294C6.64,7.294 7.98,6.864 11.04,8.976C12.32,8.606 13.68,8.422 15.04,8.422C16.4,8.422 17.76,8.606 19.04,8.976C22.1,6.842 23.44,7.294 23.44,7.294C24.32,9.55 23.76,11.232 23.6,11.642C24.62,12.79 25.24,14.246 25.24,16.05C25.24,22.346 21.5,23.74 17.94,24.15C18.52,24.662 19.02,25.646 19.02,27.184C19.02,29.378 19,31.142 19,31.696C19,32.126 19.3,32.64 20.1,32.476C26.42,30.302 31,24.15 31,16.912C31,7.848 23.84,0.506 15,0.506Z" fill="#FFFFFF"/>
</svg>
